<svg id="Layer_1" data-name="Layer 1" xmlns="http://www.w3.org/2000/svg" xmlns:xlink="http://www.w3.org/1999/xlink" viewBox="0 0 337.91 337.91"><defs><style>.cls-1{fill:url(#linear-gradient);}.cls-2{fill:#fff;}.cls-3{fill:url(#linear-gradient-2);}</style><linearGradient id="linear-gradient" x1="349.13" y1="118.73" x2="174.79" y2="219.38" gradientTransform="translate(568.06 228.27) rotate(158.11)" gradientUnits="userSpaceOnUse"><stop offset="0" stop-color="#0285f7"/><stop offset="0.06" stop-color="#0282f6"/><stop offset="0.64" stop-color="#006af2"/><stop offset="1" stop-color="#0061f0"/></linearGradient><linearGradient id="linear-gradient-2" x1="227.67" y1="118.73" x2="53.34" y2="219.38" gradientTransform="matrix(1, 0, 0, 1, 0, 0)" xlink:href="#linear-gradient"/></defs><title>Favicon</title><rect class="cls-1" x="229.42" y="49.9" width="65.07" height="238.31" rx="32.54" transform="translate(442.03 423.57) rotate(-158.11)"/><rect class="cls-2" x="43.41" y="49.7" width="65.07" height="238.31" rx="32.54" transform="translate(-57.47 40.48) rotate(-21.89)"/><path class="cls-3" d="M96.09,279.62h0a32.63,32.63,0,0,0,42.32-18.06L203,100.81a32.64,32.64,0,0,0-18.07-42.33h0A32.63,32.63,0,0,0,142.6,76.55L78,237.3c-.31.78-.59,1.57-.84,2.36A32.64,32.64,0,0,0,96.09,279.62Z"/></svg>