<svg id="Layer_1" data-name="Layer 1" xmlns="http://www.w3.org/2000/svg" xmlns:xlink="http://www.w3.org/1999/xlink" viewBox="0 0 873 140"><defs><style>.cls-1{fill:url(#linear-gradient);}.cls-2{fill:#fff;}.cls-3{fill:url(#linear-gradient-2);}</style><linearGradient id="linear-gradient" x1="178.87" y1="39.92" x2="101.34" y2="84.68" gradientTransform="translate(293.33 67.88) rotate(158.11)" gradientUnits="userSpaceOnUse"><stop offset="0" stop-color="#0285f7"/><stop offset="0.06" stop-color="#0282f6"/><stop offset="0.64" stop-color="#006af2"/><stop offset="1" stop-color="#0061f0"/></linearGradient><linearGradient id="linear-gradient-2" x1="124.85" y1="39.92" x2="47.32" y2="84.68" gradientTransform="matrix(1, 0, 0, 1, 0, 0)" xlink:href="#linear-gradient"/></defs><title>logo-full</title><rect class="cls-1" x="125.63" y="9.3" width="28.94" height="105.99" rx="14.47" transform="translate(246.89 172.34) rotate(-158.11)"/><rect class="cls-2" x="42.9" y="9.22" width="28.94" height="105.99" rx="14.47" transform="translate(-19.06 25.87) rotate(-21.89)"/><path class="cls-3" d="M66.33,111.48h0a14.51,14.51,0,0,0,18.82-8L113.87,32a14.51,14.51,0,0,0-8-18.83h0a14.51,14.51,0,0,0-18.82,8L58.3,92.65c-.14.35-.27.7-.38,1A14.53,14.53,0,0,0,66.33,111.48Z"/><path class="cls-2" d="M310.23,39.24a4.32,4.32,0,0,1,2.45-.72,4.55,4.55,0,0,1,3,1.13,3.73,3.73,0,0,1,1.31,3,4.48,4.48,0,0,1-.36,1.82l-20.06,56.09a4.78,4.78,0,0,1-2,2.36,5.69,5.69,0,0,1-3,.82,5.47,5.47,0,0,1-2.9-.82,4.31,4.31,0,0,1-1.91-2.36L270.29,53.68l-16.88,46.83a4.36,4.36,0,0,1-1.91,2.36,5.49,5.49,0,0,1-2.9.82,5.42,5.42,0,0,1-2.95-.82,4.81,4.81,0,0,1-2-2.36L223.64,44.42a4.32,4.32,0,0,1-.37-1.82,3.69,3.69,0,0,1,1.36-3,5,5,0,0,1,3.27-1.13,4.58,4.58,0,0,1,2.5.72,4.4,4.4,0,0,1,1.68,2.18l16.79,48.29,17.06-47.83a4.61,4.61,0,0,1,1.77-2.36,4.7,4.7,0,0,1,2.68-.82,4.36,4.36,0,0,1,2.63.86A5.54,5.54,0,0,1,274.83,42l16.7,48.19,17.06-48.74A4.45,4.45,0,0,1,310.23,39.24Z"/><path class="cls-2" d="M338.05,101.83a4.48,4.48,0,0,1-1.23-3.32V43.6a4.47,4.47,0,0,1,1.23-3.31,4.57,4.57,0,0,1,3.4-1.23h33.4a4.74,4.74,0,0,1,3.22,1,3.56,3.56,0,0,1,1.14,2.82,3.38,3.38,0,0,1-1.14,2.76,4.84,4.84,0,0,1-3.22,1H346V66.75H373a4.75,4.75,0,0,1,3.22,1,3.59,3.59,0,0,1,1.13,2.82,3.55,3.55,0,0,1-1.13,2.81,4.7,4.7,0,0,1-3.22,1H346V95.52h28.86q4.36,0,4.36,3.72a3.53,3.53,0,0,1-1.14,2.81,4.69,4.69,0,0,1-3.22,1h-33.4A4.61,4.61,0,0,1,338.05,101.83Z"/><path class="cls-2" d="M445.24,75.64a16,16,0,0,1,3,10q0,8.25-5.67,12.84t-15.84,4.58H403.62a4.62,4.62,0,0,1-3.4-1.22A4.48,4.48,0,0,1,399,98.51V43.6a4.47,4.47,0,0,1,1.23-3.31,4.59,4.59,0,0,1,3.4-1.23h22.15q9.89,0,15.48,4.41t5.58,12.29a14.72,14.72,0,0,1-2.68,8.81,15.76,15.76,0,0,1-7.49,5.53A15.72,15.72,0,0,1,445.24,75.64Zm-37.08-8.89h16.16q13.43,0,13.43-10.17,0-5.09-3.31-7.53T424.32,46.6H408.16ZM436,93c2.18-1.7,3.26-4.33,3.26-7.9S438.19,78.74,436,77s-5.61-2.68-10.21-2.68H408.16V95.52h17.61Q432.76,95.52,436,93Z"/><path class="cls-2" d="M470.83,101.83a4.51,4.51,0,0,1-1.22-3.32V43.6a4.5,4.5,0,0,1,1.22-3.31,4.61,4.61,0,0,1,3.41-1.23H492q15.53,0,24.05,8.35T524.61,71q0,15.26-8.53,23.65T492,103.05H474.24A4.65,4.65,0,0,1,470.83,101.83Zm20.65-6.58q23.61,0,23.6-24.24t-23.6-24.14H479V95.25Z"/><path class="cls-2" d="M630.35,99.83a25.93,25.93,0,0,1-10.43-11.35A39.09,39.09,0,0,1,616.29,71a38.9,38.9,0,0,1,3.63-17.38,26,26,0,0,1,10.43-11.34,31.23,31.23,0,0,1,16-3.95,34.32,34.32,0,0,1,11.34,1.86A27.53,27.53,0,0,1,667,45.6a4.4,4.4,0,0,1,1.73,3.63,4.33,4.33,0,0,1-.91,2.77,2.73,2.73,0,0,1-2.18,1.13,4.66,4.66,0,0,1-3-1.18,32.27,32.27,0,0,0-7.95-4.58,23.36,23.36,0,0,0-8.12-1.32q-10,0-15.34,6.45T625.91,71q0,12.17,5.35,18.61t15.34,6.44a22.17,22.17,0,0,0,7.94-1.36,38.64,38.64,0,0,0,8.13-4.54,6,6,0,0,1,3-1.18,2.71,2.71,0,0,1,2.18,1.14,4.33,4.33,0,0,1,.91,2.77A4.4,4.4,0,0,1,667,96.52a27.53,27.53,0,0,1-9.35,5.4,34.32,34.32,0,0,1-11.34,1.86A31.33,31.33,0,0,1,630.35,99.83Z"/><path class="cls-2" d="M690.26,102.24A4.66,4.66,0,0,1,689,98.79V43.33a4.67,4.67,0,0,1,1.27-3.4,4.44,4.44,0,0,1,3.36-1.32,4.38,4.38,0,0,1,4.72,4.72V98.79a4.76,4.76,0,0,1-1.23,3.45,4.65,4.65,0,0,1-3.49,1.27A4.56,4.56,0,0,1,690.26,102.24Z"/><path class="cls-2" d="M738.86,102.19a4.59,4.59,0,0,1-1.31-3.4V46.87H719.39Q715,46.87,715,43a3.67,3.67,0,0,1,1.13-2.91,4.76,4.76,0,0,1,3.22-1h45.75a4.76,4.76,0,0,1,3.22,1A3.67,3.67,0,0,1,769.5,43c0,2.6-1.46,3.9-4.36,3.9H747V98.79a4.72,4.72,0,0,1-1.27,3.4,5.12,5.12,0,0,1-6.86,0Z"/><path class="cls-2" d="M830.58,38.61a4.08,4.08,0,0,1,2.95,1.32,4.16,4.16,0,0,1,1.32,3,4,4,0,0,1-1.09,2.81L812.34,72.46V98.79a4.53,4.53,0,0,1-1.32,3.49,4.78,4.78,0,0,1-3.4,1.23A4.32,4.32,0,0,1,803,98.79V72.46L781.57,45.78a4.32,4.32,0,0,1,3.17-7.17,4,4,0,0,1,3.18,1.63l19.79,24.87L827.4,40.24A3.88,3.88,0,0,1,830.58,38.61Z"/><path class="cls-2" d="M602.89,97.14l-25.59-56a4.8,4.8,0,0,0-2-2.27,5.72,5.72,0,0,0-5.9,0,4.83,4.83,0,0,0-2,2.27l-25.59,56a4.83,4.83,0,0,0-.46,1.82,3.63,3.63,0,0,0,1.41,2.9,4.85,4.85,0,0,0,3.22,1.18,4.26,4.26,0,0,0,2.27-.68,4.16,4.16,0,0,0,1.64-2l6-13.62h0l4.51-10.11h0L572.4,49.31l13.34,30h0L589,86.79h0l6,13.62a4.22,4.22,0,0,0,1.58,2,4.05,4.05,0,0,0,2.23.68,4.74,4.74,0,0,0,3.13-1.18,3.63,3.63,0,0,0,1.41-2.9A5,5,0,0,0,602.89,97.14Z"/></svg>