<svg id="Layer_1" data-name="Layer 1" xmlns="http://www.w3.org/2000/svg" xmlns:xlink="http://www.w3.org/1999/xlink" viewBox="0 0 500 82"><defs><style>.cls-1{fill:url(#linear-gradient);}.cls-2,.cls-4{fill:#fff;}.cls-3{fill:url(#linear-gradient-2);}.cls-4{font-size:54.77px;font-family:Nunito-SemiBold, Nunito;font-weight:600;letter-spacing:0.1em;}.cls-5{letter-spacing:0.08em;}.cls-6{fill:none;letter-spacing:0.08em;}.cls-7{letter-spacing:0.1em;}.cls-8{letter-spacing:0.11em;}</style><linearGradient id="linear-gradient" x1="94.53" y1="22.85" x2="47.75" y2="49.86" gradientTransform="translate(150.7 43.57) rotate(158.11)" gradientUnits="userSpaceOnUse"><stop offset="0" stop-color="#0285f7"/><stop offset="0.06" stop-color="#0282f6"/><stop offset="0.64" stop-color="#006af2"/><stop offset="1" stop-color="#0061f0"/></linearGradient><linearGradient id="linear-gradient-2" x1="61.94" y1="22.85" x2="15.15" y2="49.86" gradientTransform="matrix(1, 0, 0, 1, 0, 0)" xlink:href="#linear-gradient"/></defs><title>Logo-Navbar-07</title><rect class="cls-1" x="62.41" y="4.37" width="17.46" height="63.96" rx="8.73" transform="translate(123.6 96.61) rotate(-158.11)"/><rect class="cls-2" x="12.48" y="4.32" width="17.46" height="63.96" rx="8.73" transform="translate(-12 10.53) rotate(-21.89)"/><path class="cls-3" d="M26.62,66h0A8.76,8.76,0,0,0,38,61.18L55.31,18A8.76,8.76,0,0,0,50.46,6.68h0a8.75,8.75,0,0,0-11.35,4.85L21.77,54.67c-.08.21-.16.42-.22.63A8.76,8.76,0,0,0,26.62,66Z"/><text class="cls-4" transform="translate(119.35 60.94)">WEB<tspan class="cls-5" x="146.13" y="0">D</tspan><tspan class="cls-6" x="191.54" y="0">A</tspan><tspan class="cls-7" x="235.96" y="0">CI</tspan><tspan class="cls-8" x="298.62" y="0">T</tspan><tspan class="cls-7" x="337.89" y="0">Y</tspan></text><path class="cls-2" d="M350.41,57.38,335,23.58a2.86,2.86,0,0,0-1.23-1.37,3.48,3.48,0,0,0-3.56,0,2.86,2.86,0,0,0-1.23,1.37l-15.45,33.8a3,3,0,0,0-.27,1.09,2.2,2.2,0,0,0,.85,1.76,2.94,2.94,0,0,0,1.94.71,2.59,2.59,0,0,0,2.36-1.59L322,51.13h0l2.72-6.1h0L332,28.51l8.05,18.13h0l2,4.49h0l3.61,8.22a2.62,2.62,0,0,0,1,1.18,2.45,2.45,0,0,0,1.34.41,2.87,2.87,0,0,0,1.89-.71,2.2,2.2,0,0,0,.85-1.76A3,3,0,0,0,350.41,57.38Z"/></svg>