<svg id="Layer_1" data-name="Layer 1" xmlns="http://www.w3.org/2000/svg" viewBox="0 0 150 150"><defs><style>.cls-1{fill:#2d150e;}</style></defs><title>varkhart</title><path class="cls-1" d="M75.14,57.11l-1-.13,0-.37c1.27-.18,2.55-.31,3.81-.54s2.67-.56,4-.94c.32-.09.53-.55,1-1l2.65,1c-1.56-2.19-4.17-2.49-6.32-3.7l2.55.52c.88.19,1.72.4,2.45-.44a1.17,1.17,0,0,1,1.07,0c1.29.68,2.53,1.45,3.52,2L86,51l.51-.51c2.65,1.39,4.09,4,6,6.6l.69-2.2c2.37,1.77,2.9,3.25,1.65,5,.8.82,1.56,1.66,2.67.68l1.2,1.61-.46.35,1.31.53,0,.2h-1l-.22.34L99.86,65l-1.14-.22-.23.33c.89.77,1.68,1.84,2.71,2.21a2.92,2.92,0,0,1,1.88,1.84c.53,1.26,1,2.55,1.49,3.82l.48-.07-.64-5.1A7.12,7.12,0,0,1,106,69.43a3.82,3.82,0,0,1,.36,2.42c-.62,2.19.55,3.55,1.91,4.9,1,1,.9,1.43-.38,2-.68.29-1.33.63-2,1-.31.14-.64.43-.94.4-2.24-.22-4.56-.19-6.53-1.58a11.81,11.81,0,0,0-1.64-1.22c-1.53-.73-1.79-.37-2.64,1-2.09,3.46-1,6.61.4,9.92a17.6,17.6,0,0,1,1.4,5.52,7,7,0,0,0,2.21,4.47A18.53,18.53,0,0,1,99.92,101l-.41.32-1.12-.49-.81.9c-1.44-.88-3.75-.61-3.69-3.28l-1.35.24a2.87,2.87,0,0,1-.07-.89c1-3.59-.87-6.18-2.85-8.81-1-1.36-1.82-2.88-2.77-4.3a14,14,0,0,0-1.27-1.4l-.61.23c.09,1.42.15,2.84.31,4.26.09.87.43,1.73.49,2.6.15,2.34-.63,3.13-2.9,3.35-1.32.12-2.62.45-3.92.69a6.54,6.54,0,0,1-6.55-3.07c1.14-.41,2.26-.88,3.41-1.2a2.15,2.15,0,0,1,1.24.29c.31.12.56.57.83.56a10.67,10.67,0,0,0,3.05-.36c.2-.06.18-1.42-.05-2.06-1.83-4.87-2.56-5.34-7.72-5.22-.59,0-1.18.06-1.77.13-3.37.38-6.68.33-9.57-1.46a36.14,36.14,0,0,0-1.34,4.55,6.21,6.21,0,0,0,.24,3.43,23.6,23.6,0,0,0,3.08,4.63,10.53,10.53,0,0,1,2.61,5.37l-2.16-1-.18,1c-1.16-.39-2.3-.6-2.76-2-.11-.31-.73-.44-1.35-.79.75-3.07-1.33-5.16-3.56-7.21-1.52-1.4-1.73-2.75-.91-4.67.16-.36.29-.73.45-1.09.34-.84.14-1.32-.83-1.38a9.79,9.79,0,0,0-6.69,1.79,4.47,4.47,0,0,0-1.34,2.76,7.73,7.73,0,0,1-5.93,6.36A3.93,3.93,0,0,1,42,90.67a15.64,15.64,0,0,0,2.45-5.1c.28-.89-.32-2-.41-3.06a1.33,1.33,0,0,1,.51-1C46.3,80.32,48.08,79.18,50,78c-1.6-4.35,0-8.27,1-12.38.77-2.92.54-6.15.47-9.23s-.24-6.19,1-9.15c1.41-3.32,3.23-4,6.36-2.27A8.63,8.63,0,0,1,63,49.64l-5.9-4.16-.33.34,5.13,7.42-.26.26L54,45.84a8.25,8.25,0,0,0-.9,1.62c-1.16,3.72-.82,7.5-.39,11.28.14,1.27.3,2.54.48,3.8.07.46.21.91.32,1.39,2.92-1.14,5.74-.48,8.73-.1l-.54-1.16h2.39l-.37-.92L68,64l.28-.44-.81-1.08.17.39a17.31,17.31,0,0,0,3-1.08c2.11-1.23,4.12-2.61,6.17-3.93l-.12-.35c-.66.17-1.54.13-2,.55-1.27,1.32-3,1-4.59,1.41l5.06-2.07Z"/><path class="cls-1" d="M75,125a50,50,0,1,1,35.36-14.64A49.7,49.7,0,0,1,75,125Zm0-97.87A47.87,47.87,0,1,0,122.87,75,47.92,47.92,0,0,0,75,27.13Z"/></svg>